<?xml version="1.0" standalone="no"?>
<!DOCTYPE svg PUBLIC "-//W3C//DTD SVG 20010904//EN"
 "http://www.w3.org/TR/2001/REC-SVG-20010904/DTD/svg10.dtd">
<svg version="1.0" xmlns="http://www.w3.org/2000/svg"
 width="512.000000pt" height="512.000000pt" viewBox="0 0 512.000000 512.000000"
 preserveAspectRatio="xMidYMid meet">
<metadata>
Created by potrace 1.14, written by Peter Selinger 2001-2017
</metadata>
<g transform="translate(0.000000,512.000000) scale(0.100000,-0.100000)"
fill="#000000" stroke="none">
<path d="M1420 4096 c14 -18 13 -19 -2 -13 -10 4 -18 2 -18 -4 0 -6 -7 -9 -15
-6 -8 4 -17 1 -21 -5 -5 -7 -11 -6 -19 6 -12 15 -13 15 -18 -4 -4 -14 -10 -18
-23 -13 -12 5 -15 3 -9 -6 6 -10 3 -11 -12 -3 -18 10 -46 2 -44 -12 2 -15 0
-16 -17 -7 -21 11 -56 -5 -46 -21 4 -7 0 -6 -13 1 -11 6 -24 7 -28 3 -3 -4
-10 -7 -13 -7 -16 0 -51 -33 -44 -41 4 -4 -1 -2 -10 5 -12 9 -18 10 -19 2 -1
-6 -2 -17 -3 -23 0 -7 -5 -13 -11 -13 -5 0 -16 -4 -22 -8 -7 -5 -13 -5 -13 0
0 4 -5 1 -10 -7 -9 -13 -10 -13 -10 0 -1 8 -8 2 -16 -15 -8 -16 -12 -22 -9
-12 2 9 2 17 -2 17 -3 0 -12 -8 -20 -17 -8 -11 -11 -12 -7 -3 7 12 5 13 -8 3
-8 -7 -18 -10 -21 -7 -4 4 -5 -3 -2 -14 2 -12 -1 -25 -7 -28 -7 -4 -8 -2 -4 4
4 7 2 12 -3 12 -6 0 -11 -5 -11 -11 0 -5 -6 -7 -12 -3 -8 5 -7 0 2 -11 14 -17
14 -18 -7 -6 -20 10 -22 9 -16 -6 5 -12 2 -15 -10 -10 -18 7 -42 -17 -33 -32
4 -6 -2 -8 -13 -6 -11 2 -26 -4 -33 -13 -12 -16 -11 -16 6 -2 17 13 19 13 14
0 -3 -8 -14 -15 -25 -14 -11 0 -20 -5 -20 -12 0 -7 7 -10 16 -8 9 2 4 -2 -11
-9 -20 -9 -25 -16 -17 -24 8 -8 7 -13 -2 -18 -7 -5 -10 -4 -6 1 3 6 -4 16 -16
24 -19 11 -20 11 -10 -1 7 -9 8 -20 3 -29 -5 -8 -6 -18 -4 -22 3 -4 -3 -5 -12
-1 -14 5 -16 3 -11 -12 6 -15 5 -16 -8 -5 -13 11 -14 10 -9 -5 6 -14 4 -16 -6
-10 -10 6 -12 3 -8 -13 4 -14 2 -19 -8 -15 -23 8 -37 -7 -22 -25 11 -13 10
-15 -5 -9 -10 4 -16 3 -13 -2 3 -4 -2 -17 -10 -27 -9 -10 -12 -13 -8 -5 5 10
3 12 -5 7 -8 -5 -9 -12 -2 -20 7 -8 6 -17 -1 -26 -8 -12 -9 -11 -4 4 5 16 4
17 -9 6 -8 -7 -12 -16 -10 -21 3 -4 -3 -12 -12 -18 -14 -8 -15 -10 -3 -11 13
0 13 -2 0 -9 -8 -6 -18 -7 -24 -4 -5 3 -6 1 -2 -6 4 -6 12 -9 17 -6 5 3 6 -1
3 -10 -5 -13 -9 -13 -22 -3 -14 12 -14 10 -2 -11 11 -21 10 -23 -3 -18 -11 4
-14 2 -11 -7 3 -8 1 -17 -5 -21 -6 -3 -11 -18 -11 -33 0 -17 -3 -22 -8 -15 -5
8 -12 3 -19 -17 -9 -23 -8 -28 0 -23 7 4 6 0 -1 -10 -8 -9 -11 -21 -8 -26 4
-5 1 -13 -5 -17 -7 -4 -9 -3 -5 4 3 6 3 13 -2 16 -4 2 -9 -7 -10 -20 -1 -17 2
-23 10 -18 7 4 8 3 4 -4 -4 -7 -14 -12 -22 -12 -8 0 -12 -5 -9 -10 4 -6 11 -8
16 -5 14 9 11 0 -10 -23 -10 -12 -21 -19 -24 -16 -8 8 -3 -18 6 -33 5 -8 4
-13 -2 -13 -6 0 -11 -5 -11 -11 0 -5 4 -7 10 -4 6 3 7 -1 4 -9 -3 -9 -11 -13
-18 -9 -6 4 -5 -1 3 -10 7 -9 9 -17 3 -17 -14 0 -25 -52 -13 -59 13 -9 8 -41
-8 -51 -11 -6 -11 -9 0 -13 12 -5 12 -7 0 -15 -9 -7 -10 -12 -2 -16 6 -4 8
-13 4 -19 -10 -17 -11 -197 -1 -191 4 3 8 0 8 -5 0 -6 -4 -11 -8 -11 -5 0 -8
-20 -7 -45 1 -32 8 -50 21 -60 18 -13 18 -14 -6 -9 -14 2 -19 2 -12 -2 7 -3
17 -15 23 -26 9 -16 8 -19 -3 -12 -11 6 -11 5 1 -9 10 -13 10 -17 1 -17 -8 0
-9 -4 -3 -12 5 -7 9 -20 8 -28 -1 -19 17 -40 29 -32 5 3 6 0 2 -7 -6 -8 -12
-9 -20 -2 -9 8 -13 7 -13 -4 0 -8 4 -12 9 -9 11 7 27 -37 20 -55 -4 -10 -1
-12 8 -6 8 5 11 4 6 -3 -3 -6 2 -16 11 -22 15 -10 16 -11 1 -6 -14 4 -15 1 -6
-25 6 -16 15 -26 21 -22 6 4 8 0 4 -10 -3 -8 1 -21 9 -27 8 -7 14 -19 14 -27
0 -8 5 -11 12 -7 7 4 8 3 4 -5 -4 -6 -13 -8 -19 -4 -8 5 -8 2 0 -9 7 -8 11
-17 8 -20 -3 -3 1 -11 10 -18 13 -11 15 -10 9 6 -5 16 -4 16 5 4 14 -19 14
-43 0 -35 -6 4 -5 -2 2 -13 7 -12 17 -18 21 -16 4 3 8 -2 8 -10 0 -9 5 -16 11
-16 5 0 7 -4 4 -10 -3 -5 2 -10 12 -10 15 0 16 -2 3 -10 -13 -8 -13 -10 2 -10
11 0 20 -11 24 -27 4 -16 12 -34 18 -42 6 -8 10 -16 9 -18 -2 -1 -1 -3 2 -3 3
0 8 0 12 0 3 0 -2 9 -12 20 -10 11 -16 22 -14 24 2 2 19 -17 38 -43 24 -32 27
-40 11 -26 l-23 20 14 -23 c8 -12 17 -22 22 -22 4 0 5 -6 1 -12 -5 -8 0 -7 11
2 11 9 16 10 11 2 -4 -7 -2 -12 6 -12 9 0 9 -3 -2 -10 -13 -9 -13 -10 0 -10 9
0 22 6 29 13 10 8 12 8 7 0 -4 -7 1 -11 13 -10 16 1 18 4 8 16 -10 12 -9 13
10 3 20 -11 21 -10 18 9 -3 16 0 19 12 15 13 -5 14 -4 4 8 -11 13 -9 15 8 11
12 -2 19 0 16 6 -4 5 -1 9 5 9 6 0 8 5 5 10 -3 5 0 10 7 10 8 0 21 9 31 20 9
11 14 20 11 20 -13 0 21 33 44 41 14 5 20 14 16 21 -5 7 -2 9 9 5 9 -3 18 0
21 9 4 9 2 12 -5 8 -8 -4 -7 0 0 15 7 11 14 21 17 21 3 0 2 -4 -1 -10 -3 -5
-1 -10 4 -10 10 0 16 21 12 43 -1 4 7 3 17 -2 15 -8 18 -6 18 12 -1 12 4 22
11 22 20 0 27 14 9 21 -9 3 -13 11 -9 18 4 6 -1 4 -12 -4 -16 -14 -17 -13 -11
8 6 17 3 22 -10 22 -13 0 -14 3 -5 14 9 11 9 16 0 22 -8 4 -9 3 -5 -4 11 -18
-10 -14 -25 5 -8 10 -9 14 -2 10 6 -4 14 -3 18 3 3 5 -3 10 -14 10 -12 0 -21
7 -21 16 0 9 -5 12 -12 8 -10 -6 -10 -4 -1 7 7 7 13 18 13 23 0 6 -5 4 -10 -4
-8 -12 -10 -12 -10 5 0 11 -9 26 -21 33 -12 7 -18 16 -15 19 3 4 -2 16 -11 27
-15 17 -15 19 -1 8 12 -10 18 -10 24 -1 4 7 3 10 -2 7 -5 -3 -18 4 -29 15 -20
20 -20 20 0 13 18 -6 17 -5 -3 17 -17 18 -20 27 -11 32 8 6 10 4 4 -5 -5 -9
-4 -11 4 -6 6 4 9 12 5 17 -3 5 -10 6 -16 3 -8 -5 -9 -1 -5 10 5 13 3 17 -7
13 -9 -4 -13 0 -11 11 2 9 4 17 5 17 1 0 3 8 5 17 2 10 -4 22 -13 28 -10 5
-12 10 -7 10 6 0 10 13 10 29 1 22 -3 27 -15 23 -13 -5 -13 -3 -2 11 12 14 11
20 -2 38 -11 16 -12 27 -5 41 7 13 6 18 -3 18 -9 0 -9 3 2 10 9 6 10 10 3 10
-8 0 -9 9 -3 29 4 15 4 34 0 42 -10 15 -4 29 13 29 7 0 6 -4 -3 -11 -13 -9
-13 -10 0 -6 10 2 14 13 12 31 -3 20 0 26 8 21 6 -4 4 7 -5 25 -10 20 -12 29
-4 25 9 -6 11 -2 7 13 -4 13 2 29 14 41 10 12 14 21 8 21 -5 0 -10 5 -10 11 0
6 7 8 17 5 10 -4 14 -4 11 0 -4 4 -2 16 4 28 10 19 9 19 -5 8 -13 -11 -15 -10
-10 7 3 12 10 18 16 14 6 -4 8 0 4 10 -3 9 0 18 9 21 8 3 14 10 14 16 0 6 -5
8 -12 4 -7 -4 -8 -3 -4 4 4 7 14 12 22 12 8 0 14 5 14 11 0 5 -6 7 -12 4 -7
-4 -5 0 4 8 14 11 15 16 5 26 -9 10 -8 11 7 5 15 -6 17 -4 11 6 -6 10 -4 12 8
7 11 -4 15 -1 12 13 -3 16 18 35 36 32 4 -1 5 6 2 16 -2 9 3 26 12 37 9 11 13
13 9 5 -7 -13 -6 -13 10 -1 13 11 14 16 4 23 -9 7 -6 8 9 5 16 -4 20 -1 16 11
-5 11 -3 13 7 7 10 -6 12 -4 7 8 -3 10 -2 17 4 17 16 0 39 27 31 36 -4 5 1 2
11 -5 9 -8 20 -11 24 -7 3 3 1 6 -5 6 -6 0 0 12 13 26 13 14 29 23 34 19 6 -3
11 -1 11 4 0 6 8 11 18 11 15 0 15 2 2 11 -12 9 -11 10 8 6 14 -3 20 -1 15 6
-4 6 2 8 16 4 18 -4 20 -3 10 9 -10 12 -9 13 4 9 8 -4 18 -1 22 4 3 6 11 8 17
5 7 -5 8 -2 3 6 -5 8 -3 11 6 8 8 -3 20 2 27 11 8 9 11 11 8 4 -4 -6 -1 -15 5
-19 8 -4 9 -3 5 4 -4 7 -3 12 3 12 6 0 7 8 4 18 -6 14 -4 15 8 5 8 -6 21 -11
29 -9 42 8 70 19 70 27 0 6 -10 5 -22 -1 -22 -11 -22 -10 -4 4 12 10 23 12 31
6 6 -5 17 -5 25 0 9 5 19 5 27 -2 9 -7 14 -6 19 6 6 15 8 15 21 -1 8 -10 12
-13 9 -7 -3 7 1 15 10 18 10 4 13 2 8 -7 -5 -8 -2 -7 9 2 14 11 17 11 18 0 0
-8 4 -5 9 6 7 17 9 17 9 3 1 -21 12 -23 29 -6 9 9 12 9 12 0 0 -7 5 -12 11
-12 5 0 8 4 5 8 -2 4 4 8 15 8 10 0 19 -3 19 -7 0 -4 23 -6 50 -4 28 1 54 -3
57 -8 4 -6 1 -7 -7 -2 -9 6 -11 4 -5 -5 6 -10 11 -9 22 5 12 17 13 17 13 2 0
-9 7 -17 16 -17 9 0 12 5 8 13 -5 8 -2 8 9 -2 18 -14 23 -26 8 -16 -5 3 -12 1
-15 -4 -7 -10 20 -9 30 2 13 13 26 7 20 -9 -6 -15 -4 -15 11 -3 15 12 16 12 9
-6 -4 -11 -4 -16 0 -12 4 4 14 1 23 -6 14 -11 14 -10 2 6 -12 15 -12 17 3 11
9 -3 16 -10 16 -16 0 -5 5 -6 10 -3 6 3 10 1 10 -4 0 -6 4 -11 10 -11 5 0 8 6
6 13 -1 6 -1 9 1 4 3 -4 10 -4 15 -1 6 4 8 3 5 -2 -9 -15 8 -35 31 -37 11 0
18 -5 15 -11 -4 -5 3 -7 16 -3 19 5 20 3 9 -11 -8 -10 -9 -13 -1 -9 6 4 14 3
18 -3 4 -6 11 -7 17 -4 7 4 8 2 4 -4 -4 -7 -2 -12 4 -12 6 0 8 -5 4 -12 -5 -8
0 -7 11 2 17 14 18 14 5 -10 -10 -21 -10 -23 1 -12 16 14 33 16 24 2 -3 -5 1
-10 11 -10 12 0 15 -6 11 -21 -4 -16 -3 -18 9 -8 11 9 14 8 14 -2 0 -11 2 -11
10 1 9 13 10 13 10 0 0 -13 1 -13 11 0 9 13 10 13 7 0 -2 -8 1 -16 7 -17 5 -2
10 7 10 19 0 12 7 23 15 26 13 5 13 3 0 -14 -14 -17 -14 -18 2 -6 9 7 15 22
13 32 -3 14 1 17 12 13 12 -5 14 -3 8 7 -6 10 -4 12 8 7 11 -4 15 -1 12 12 -2
12 2 18 13 17 10 0 16 6 16 16 -1 11 5 15 17 13 12 -3 16 1 12 11 -3 7 2 17
11 20 9 3 13 11 9 18 -4 6 2 4 12 -4 10 -8 16 -10 13 -4 -4 5 6 21 23 34 28
24 41 49 17 34 -6 -4 -8 -3 -4 4 3 6 15 9 26 7 13 -3 17 1 13 11 -3 10 2 14
18 14 13 0 20 4 14 8 -5 4 -11 14 -13 22 -3 12 -1 13 9 3 16 -16 29 -17 29 -2
0 5 -4 7 -10 4 -5 -3 -10 3 -10 15 0 12 -4 18 -10 15 -6 -3 -10 1 -10 10 0 11
-5 15 -16 11 -8 -3 -12 -2 -9 4 6 9 -8 14 -27 11 -13 -2 -9 17 5 23 6 4 3 5
-9 2 -12 -2 -21 2 -21 10 0 7 5 10 10 7 6 -3 7 -1 3 5 -4 7 -16 12 -26 12 -21
0 -44 32 -32 45 4 5 2 5 -5 1 -6 -3 -15 -1 -18 5 -4 5 -13 8 -21 5 -8 -3 -14
1 -14 9 0 8 -7 15 -16 15 -9 0 -12 5 -8 13 5 7 0 6 -11 -3 -17 -14 -18 -13
-13 2 5 12 1 16 -17 13 -14 -1 -22 1 -20 5 3 5 -2 11 -11 14 -8 3 -13 10 -10
15 3 5 -4 7 -16 4 -13 -3 -20 -2 -16 2 13 14 -25 35 -40 23 -10 -8 -17 -7 -28
5 -8 9 -9 12 -2 7 20 -16 31 -11 13 6 -13 14 -18 14 -32 2 -12 -9 -15 -9 -9 0
5 8 1 12 -13 12 -33 0 -50 11 -44 27 5 13 2 13 -15 4 -15 -8 -21 -8 -24 1 -2
6 -12 12 -21 14 -11 1 -14 -2 -10 -9 5 -8 2 -8 -9 0 -8 7 -19 9 -23 5 -5 -4
-6 0 -2 9 4 13 1 16 -15 11 -11 -3 -24 1 -29 9 -6 10 -9 10 -9 2 0 -7 -5 -13
-11 -13 -5 0 -8 4 -5 8 3 5 -1 9 -9 9 -8 0 -12 -4 -9 -9 3 -4 0 -8 -5 -8 -6 0
-11 4 -11 9 0 5 -7 11 -14 14 -11 4 -13 1 -10 -11 4 -12 1 -11 -8 3 -14 22
-25 25 -47 11 -10 -6 -16 -5 -19 2 -2 7 -8 12 -13 12 -6 0 -7 -6 -3 -12 5 -10
4 -10 -6 -1 -9 9 -19 9 -33 2 -11 -6 -17 -7 -14 -2 3 5 -12 9 -33 9 -23 0 -36
-4 -33 -9 4 -6 1 -7 -7 -2 -20 12 -101 15 -94 3 4 -6 -4 -5 -16 2 -15 8 -20 8
-16 1 4 -6 2 -11 -3 -11 -6 0 -11 6 -11 13 0 8 -4 7 -10 -3 -5 -8 -10 -10 -10
-4 0 6 -7 11 -15 11 -10 0 -12 -4 -5 -12 6 -7 3 -11 -10 -11 -10 0 -16 5 -13
11 4 5 3 7 -2 3 -4 -4 -15 -2 -24 5 -14 11 -15 10 -1 -7z m-300 -106 c0 -5 -5
-10 -11 -10 -5 0 -7 5 -4 10 3 6 8 10 11 10 2 0 4 -4 4 -10z m1311 -147 c13
-16 12 -17 -3 -4 -17 13 -22 21 -14 21 2 0 10 -8 17 -17z m-1614 -48 c0 -8 -4
-12 -9 -9 -5 3 -6 10 -3 15 9 13 12 11 12 -6z m587 -203 c3 -5 -1 -9 -9 -9 -8
0 -12 4 -9 9 3 4 7 8 9 8 2 0 6 -4 9 -8z m-434 -312 c0 -5 -5 -10 -11 -10 -5
0 -7 5 -4 10 3 6 8 10 11 10 2 0 4 -4 4 -10z m-586 -175 c-4 -8 -11 -15 -16
-15 -6 0 -5 6 2 15 7 8 14 15 16 15 2 0 1 -7 -2 -15z m-33 -138 c-10 -9 -11
-8 -5 6 3 10 9 15 12 12 3 -3 0 -11 -7 -18z m459 -67 c0 -5 -5 -10 -11 -10 -5
0 -7 5 -4 10 3 6 8 10 11 10 2 0 4 -4 4 -10z"/>
<path d="M1009 3943 c-12 -16 -12 -17 2 -6 9 7 20 9 24 5 5 -4 5 -1 1 6 -9 16
-11 15 -27 -5z"/>
<path d="M2245 3359 c-18 -9 -18 -9 3 -5 12 2 22 0 22 -5 0 -5 -5 -9 -11 -9
-5 0 -7 -4 -4 -10 4 -6 -1 -7 -12 -3 -16 6 -17 5 -3 -12 14 -17 14 -18 -7 -7
-20 11 -21 10 -18 -9 3 -17 2 -19 -10 -9 -12 10 -16 9 -21 -3 -3 -9 -3 -20 0
-26 4 -5 -4 -7 -16 -4 -19 4 -20 3 -8 -6 8 -6 12 -11 8 -12 -5 -1 -12 -2 -16
-3 -5 0 -24 -17 -43 -35 -19 -19 -29 -32 -22 -28 6 4 15 2 19 -4 4 -7 3 -9 -4
-5 -6 3 -14 1 -18 -5 -4 -8 -9 -7 -16 2 -7 10 -8 8 -5 -8 4 -20 2 -21 -14 -12
-12 6 -19 6 -19 0 0 -5 6 -12 13 -14 7 -3 4 -6 -6 -6 -11 -1 -15 -5 -11 -13 5
-8 2 -9 -11 -4 -15 5 -16 4 -5 -9 7 -9 9 -15 4 -13 -16 4 -55 -23 -48 -34 5
-8 1 -9 -12 -4 -10 4 -15 4 -11 0 4 -4 2 -12 -3 -19 -12 -14 15 -55 36 -55 8
0 14 -6 14 -12 0 -7 14 -26 30 -42 24 -23 27 -32 18 -43 -10 -12 -8 -14 7 -11
10 1 20 -3 23 -11 3 -8 0 -11 -6 -7 -6 3 -14 2 -17 -4 -4 -6 -3 -10 2 -9 31 5
41 -3 39 -30 -1 -16 0 -29 3 -29 20 2 31 -3 26 -12 -4 -6 -10 -8 -14 -6 -4 3
-8 -1 -8 -9 0 -8 4 -12 8 -9 4 2 10 0 14 -6 4 -6 11 -8 16 -5 5 4 9 1 9 -5 0
-7 -7 -10 -15 -6 -8 3 -15 1 -15 -3 0 -5 7 -12 16 -15 9 -4 14 -13 10 -21 -3
-8 -1 -15 5 -15 6 0 6 -7 -1 -19 -7 -14 -7 -22 1 -27 8 -4 7 -9 -2 -16 -10 -7
-8 -8 7 -4 14 4 21 2 21 -8 0 -9 -5 -12 -11 -9 -6 4 -5 0 1 -8 10 -12 10 -18
0 -29 -9 -10 -9 -11 1 -6 9 5 11 -2 7 -28 -3 -29 -1 -36 13 -37 10 0 12 -3 5
-6 -7 -2 -13 -13 -13 -24 0 -10 -5 -19 -12 -19 -6 0 -9 -3 -6 -6 4 -3 17 0 30
7 20 11 22 11 10 -3 -7 -9 -12 -20 -11 -24 4 -16 -13 -64 -22 -64 -5 0 -4 -9
3 -19 9 -15 9 -23 -1 -34 -9 -12 -9 -17 0 -23 8 -5 9 -3 4 6 -6 9 -4 11 4 6 9
-6 8 -13 -6 -29 -10 -11 -12 -17 -6 -13 9 5 11 2 7 -8 -3 -9 -11 -13 -18 -9
-6 3 -8 3 -4 -1 3 -4 1 -28 -7 -52 -7 -24 -9 -41 -4 -38 5 3 9 0 9 -5 0 -6 -8
-11 -17 -11 -14 0 -15 -2 -4 -9 11 -7 9 -10 -8 -16 -11 -3 -21 -11 -21 -17 0
-6 7 -5 17 3 17 13 17 13 0 -13 -9 -15 -15 -33 -14 -40 2 -7 2 -10 0 -5 -3 4
-9 4 -14 1 -6 -3 -5 -11 2 -20 10 -12 9 -13 -7 -7 -16 6 -17 4 -6 -9 10 -13 9
-18 -5 -29 -17 -13 -17 -13 -3 6 14 18 13 19 -1 8 -9 -7 -19 -9 -24 -5 -4 4
-2 -4 5 -17 11 -21 10 -23 -4 -18 -10 4 -15 3 -11 -2 3 -5 -1 -12 -7 -14 -10
-4 -9 -6 1 -6 9 -1 7 -7 -9 -21 -13 -12 -20 -26 -16 -35 3 -9 2 -14 -3 -11 -5
3 -14 -1 -21 -9 -7 -8 -20 -15 -29 -15 -14 0 -14 -2 -1 -10 11 -7 11 -10 2
-10 -8 0 -10 -5 -6 -12 5 -8 0 -7 -11 2 -15 12 -17 12 -10 1 6 -11 4 -13 -7
-9 -8 4 -15 0 -15 -8 0 -7 5 -10 10 -7 6 4 7 1 3 -6 -5 -7 -14 -10 -22 -7 -7
3 -16 0 -20 -6 -4 -7 -3 -8 4 -4 7 4 12 2 12 -3 0 -10 -21 -16 -43 -12 -4 0
-6 -2 -6 -6 3 -21 -3 -31 -22 -36 -12 -3 -18 -10 -14 -16 4 -7 0 -8 -11 -4
-12 4 -15 3 -10 -6 5 -7 2 -10 -6 -9 -7 2 -12 -3 -10 -10 1 -8 -2 -11 -8 -7
-6 3 -8 10 -5 15 3 5 0 12 -6 16 -7 4 -9 3 -5 -4 3 -6 2 -13 -4 -17 -6 -4 -8
-10 -5 -15 3 -5 0 -12 -6 -16 -8 -4 -9 -3 -5 4 10 16 -7 15 -23 0 -11 -11 -12
-10 -6 2 5 8 -3 3 -18 -12 -26 -28 -44 -38 -32 -18 3 6 1 10 -4 10 -6 0 -11
-8 -11 -17 0 -15 -2 -14 -15 3 -15 19 -15 19 -8 0 5 -16 3 -18 -11 -13 -14 6
-17 3 -12 -9 5 -14 4 -15 -7 -5 -11 9 -17 8 -28 -5 -12 -14 -14 -14 -26 2 -11
16 -13 16 -13 2 0 -9 -5 -20 -12 -24 -7 -4 -8 -3 -4 4 11 19 -5 14 -20 -5 -13
-17 -14 -17 -8 0 5 13 2 16 -10 11 -9 -3 -13 -10 -10 -15 3 -5 -2 -6 -10 -3
-9 3 -14 10 -11 14 3 5 -2 7 -11 6 -8 -1 -19 -8 -24 -15 -5 -9 -10 -10 -14 -2
-4 6 -15 7 -29 2 -14 -6 -30 -5 -41 1 -14 8 -17 8 -11 -2 5 -8 3 -11 -6 -8 -8
3 -13 12 -11 19 1 9 -2 8 -11 -3 -12 -16 -16 -16 -35 -2 -20 13 -21 13 -16 -1
5 -11 2 -14 -10 -9 -9 3 -14 9 -11 13 2 4 -1 8 -8 8 -22 1 -42 8 -50 18 -4 6
-13 3 -22 -9 -13 -17 -15 -18 -15 -3 0 20 -4 21 -33 5 -21 -11 -21 -10 -7 7
14 17 13 18 -2 12 -10 -4 -18 -2 -18 4 0 7 -11 9 -25 7 -14 -3 -28 -1 -32 5
-4 6 -1 7 7 2 9 -5 11 -4 6 3 -4 7 -18 12 -32 12 -14 0 -24 6 -24 15 0 9 -6
12 -15 9 -15 -6 -45 17 -45 35 0 6 -4 11 -10 11 -5 0 -8 -6 -6 -12 1 -7 1 -10
-1 -5 -3 4 -11 7 -18 7 -12 0 -30 27 -27 42 1 4 -6 4 -15 1 -12 -5 -14 -3 -8
7 6 10 4 12 -10 7 -14 -6 -16 -3 -12 12 3 14 0 17 -14 14 -11 -3 -19 0 -19 6
0 7 -5 9 -11 5 -8 -4 -8 0 0 15 13 23 2 28 -18 9 -10 -11 -11 -9 -5 6 5 14 4
17 -5 12 -6 -4 -11 -17 -9 -29 2 -16 -2 -21 -15 -19 -10 2 -16 -3 -15 -10 2
-7 -3 -12 -11 -10 -9 2 -11 -3 -7 -13 4 -13 2 -14 -14 -5 -13 7 -21 7 -25 0
-4 -6 -3 -9 2 -8 4 2 8 -1 8 -7 0 -5 -4 -9 -9 -7 -5 2 -6 -4 -3 -12 4 -10 0
-14 -13 -11 -13 3 -17 -1 -13 -11 6 -17 -8 -18 -27 -1 -8 6 -6 2 5 -11 17 -20
17 -22 2 -16 -12 4 -17 2 -15 -7 2 -8 -4 -13 -14 -13 -11 1 -15 -5 -13 -16 2
-13 -2 -16 -15 -13 -10 3 -21 0 -24 -6 -5 -7 -1 -8 11 -4 16 6 16 5 4 -11 -8
-9 -21 -14 -29 -11 -12 4 -12 3 -3 -9 14 -16 4 -25 -22 -21 -15 3 -16 1 -6
-11 7 -8 8 -14 3 -13 -5 1 -16 1 -24 0 -13 -1 -13 -2 0 -11 13 -8 13 -10 -2
-10 -9 0 -20 -5 -24 -12 -4 -6 -3 -8 3 -5 6 4 14 0 17 -9 3 -8 2 -12 -3 -9 -5
3 -13 0 -17 -6 -5 -8 1 -10 22 -6 27 5 27 4 9 -9 -19 -14 -19 -14 1 -15 10 -1
23 -1 28 0 5 1 6 -5 3 -13 -4 -11 -1 -13 10 -9 11 4 14 2 9 -5 -7 -11 6 -17
29 -12 6 1 4 -4 -2 -11 -19 -19 -16 -34 4 -18 14 12 16 12 8 0 -6 -11 -4 -13
8 -8 9 3 16 3 16 -1 -3 -20 3 -23 17 -11 15 12 16 11 10 -7 -5 -18 -2 -23 20
-28 15 -4 24 -12 21 -20 -3 -7 1 -13 9 -13 7 0 11 4 8 9 -3 4 2 5 10 2 9 -3
12 -12 8 -22 -5 -15 -4 -16 13 -2 11 9 16 10 11 3 -4 -8 -2 -13 8 -13 8 0 18
-5 22 -12 5 -7 3 -8 -6 -3 -9 5 -11 4 -6 -3 5 -9 13 -9 29 0 21 11 21 10 7 -7
-14 -17 -13 -18 7 -13 12 3 30 0 40 -9 10 -8 12 -11 4 -7 -9 4 -12 3 -7 -4 4
-6 13 -9 22 -5 9 3 24 -6 38 -22 17 -20 26 -24 31 -15 5 9 4 11 -3 6 -7 -4
-12 -2 -12 3 0 16 20 13 26 -4 4 -8 10 -15 16 -15 5 0 6 6 3 13 -4 6 -1 5 7
-4 7 -9 23 -15 36 -14 14 1 22 -4 22 -14 0 -14 2 -14 10 -1 8 12 10 12 10 1 0
-8 3 -11 6 -8 4 3 16 1 28 -5 18 -9 19 -9 11 3 -5 8 -2 6 8 -5 14 -15 29 -19
54 -17 20 1 33 -1 30 -6 -4 -6 0 -10 8 -10 8 0 11 5 8 11 -4 6 4 2 16 -8 17
-16 21 -17 16 -4 -5 12 -2 16 12 13 10 -2 18 -4 18 -5 0 -1 10 -3 23 -6 17 -3
21 0 16 8 -4 7 2 5 13 -4 11 -10 22 -18 26 -18 3 0 4 8 1 18 -5 13 -4 14 4 3
6 -8 15 -10 23 -5 11 6 12 5 2 -7 -10 -12 -8 -15 11 -14 13 0 30 6 40 14 9 8
19 11 23 7 3 -3 1 -6 -5 -6 -7 0 -12 -4 -12 -8 0 -9 110 11 129 22 6 4 11 2
11 -3 0 -6 -5 -11 -11 -11 -5 0 -7 -5 -3 -11 5 -8 10 -6 18 7 13 22 36 29 36
12 0 -9 4 -8 10 2 7 11 10 12 10 2 0 -10 4 -9 16 3 15 14 18 14 34 0 16 -15
30 -11 30 8 0 5 -7 6 -16 3 -9 -3 -12 -2 -9 4 4 6 12 10 18 9 35 -4 58 2 51
14 -6 9 -4 9 7 -1 15 -14 33 -17 25 -4 -3 5 1 9 9 9 8 0 15 -4 15 -9 0 -13 13
-9 40 13 14 11 19 17 11 13 -9 -4 -12 -3 -8 4 4 5 17 8 29 4 16 -4 19 -2 13 9
-7 11 -5 11 10 -1 17 -14 18 -13 12 4 -7 17 -6 17 10 5 15 -12 16 -12 10 3 -3
10 -2 18 3 18 6 0 10 -5 10 -11 0 -5 5 -7 10 -4 6 4 7 11 4 17 -4 6 1 6 14 -1
18 -10 24 -8 38 14 9 14 27 28 40 31 13 3 24 10 24 15 0 14 28 11 34 -3 3 -7
3 -3 1 8 -5 18 -1 21 20 19 14 -2 23 1 19 6 -3 5 -11 6 -17 3 -7 -4 -8 -3 -4
2 5 5 13 10 18 10 5 1 14 2 20 3 5 0 7 6 4 11 -4 6 -11 7 -17 4 -6 -4 -8 -2
-5 4 4 5 16 8 26 5 11 -3 28 0 38 7 16 10 15 10 -7 5 -20 -5 -22 -4 -9 4 9 6
25 12 35 14 31 4 44 17 37 34 -5 12 -3 14 7 8 10 -6 12 -4 6 10 -6 16 -4 16
11 4 10 -7 15 -9 11 -5 -5 5 1 16 12 23 11 8 17 19 14 25 -5 7 -2 9 8 5 21 -7
31 3 17 19 -7 8 -6 14 2 20 7 4 9 3 6 -3 -4 -6 1 -14 10 -17 10 -4 14 -4 11 0
-4 4 -2 16 4 28 7 11 11 25 10 30 -2 5 5 3 14 -5 12 -9 15 -9 10 -1 -4 6 -3
12 2 12 6 0 13 12 16 26 5 18 11 24 23 20 13 -5 14 -4 4 8 -9 11 -9 16 1 22 7
5 17 9 22 9 15 0 19 25 4 25 -10 0 -9 3 2 10 9 6 17 5 23 -3 5 -7 5 -2 2 12
-5 16 -4 21 4 17 7 -5 8 -1 4 10 -5 14 -3 16 12 11 16 -7 16 -5 4 10 -8 9 -9
14 -3 10 7 -4 18 1 25 10 10 12 10 14 2 9 -8 -4 -13 -1 -13 9 0 9 9 19 20 22
16 4 19 12 17 38 -3 22 0 32 10 32 8 0 11 -7 7 -19 -9 -31 3 -20 15 12 7 22 7
29 0 24 -8 -4 -8 -1 -1 12 10 19 12 26 12 44 0 6 7 10 16 10 13 0 14 3 5 14
-9 11 -9 16 0 22 8 5 9 3 4 -6 -5 -8 -4 -11 3 -7 5 4 8 16 5 27 -3 11 -9 17
-14 14 -5 -3 -6 3 -2 12 4 11 8 13 11 6 2 -7 8 -10 13 -6 5 3 9 0 9 -7 0 -7 3
-9 6 -6 4 4 1 13 -6 22 -9 11 -9 15 -1 15 7 0 9 5 5 11 -3 6 0 15 7 20 10 6
11 9 2 9 -7 0 -13 5 -13 11 0 5 6 7 13 3 8 -5 8 -2 -2 9 -14 18 -2 24 15 7 7
-7 10 -1 10 19 0 17 -4 27 -9 24 -5 -3 -1 7 9 23 16 24 16 27 2 16 -14 -11
-16 -11 -11 7 3 12 10 18 17 14 6 -4 5 1 -3 10 -9 12 -10 17 -2 17 7 0 9 5 6
10 -4 6 -1 18 7 27 11 14 11 16 -1 9 -9 -6 -12 -5 -9 5 3 8 2 21 -3 30 -5 10
-3 16 6 16 7 0 11 -6 8 -13 -2 -6 0 -14 5 -18 13 -8 8 30 -7 48 -12 14 -11 16
3 10 9 -3 16 -1 16 5 0 6 -8 11 -17 12 -12 1 -10 4 7 9 l25 8 -25 2 c-23 1
-23 2 -5 10 14 6 15 9 5 10 -10 1 -9 4 5 10 17 7 17 9 3 9 -10 1 -18 6 -18 12
0 5 4 8 9 4 5 -3 12 -1 15 4 4 5 2 12 -4 16 -6 3 -8 17 -6 31 3 15 -1 28 -12
34 -14 9 -13 10 7 4 16 -4 21 -3 17 5 -4 6 -14 11 -22 11 -8 0 -12 5 -9 10 4
6 11 7 17 4 7 -4 8 -2 4 5 -4 6 -11 9 -16 6 -5 -3 -11 -1 -14 4 -4 5 -1 13 5
17 8 4 9 3 5 -4 -11 -18 0 -14 15 5 9 10 9 14 2 10 -7 -5 -17 1 -24 14 -9 19
-9 21 4 16 18 -7 17 8 -3 43 -8 14 -13 30 -11 35 2 6 4 20 6 33 2 18 0 20 -12
11 -11 -10 -12 -8 -7 6 6 14 4 16 -7 10 -11 -7 -11 -5 1 10 9 11 10 16 3 11
-8 -4 -13 -1 -13 9 0 9 4 14 9 11 5 -4 7 3 4 14 -3 11 -13 20 -22 20 -14 1
-14 2 2 11 9 5 17 15 17 22 0 8 -3 7 -9 -2 -5 -7 -14 -10 -21 -6 -8 5 -7 12 5
25 16 18 16 18 -7 13 -19 -5 -21 -4 -12 8 9 12 10 21 5 45 0 4 -8 0 -18 -7
-15 -13 -15 -12 -4 9 9 17 9 22 0 22 -7 0 -10 3 -6 6 3 4 -2 14 -11 23 -10 9
-12 12 -5 7 10 -6 12 -4 7 8 -3 9 -10 16 -15 16 -5 0 -9 9 -9 21 0 11 -4 18
-9 14 -5 -3 -13 0 -17 6 -4 8 -3 9 4 5 7 -4 12 -1 12 9 0 11 -5 15 -14 12 -11
-4 -13 -1 -9 10 4 11 2 14 -5 9 -9 -5 -9 -1 -3 17 8 21 7 24 -9 20 -10 -3 -21
0 -24 6 -4 6 0 11 11 11 15 0 15 2 3 9 -8 6 -17 8 -21 5 -5 -2 -6 4 -4 15 3
15 0 18 -13 14 -15 -6 -16 -5 -2 12 9 11 10 16 3 11 -7 -4 -13 -2 -13 3 0 6
-7 11 -15 11 -8 0 -12 6 -9 13 4 12 -12 33 -51 65 -8 7 -12 18 -9 24 5 8 1 9
-10 5 -9 -4 -15 -3 -12 2 10 15 -18 29 -39 20z m110 -99 c3 -5 1 -10 -4 -10
-6 0 -11 5 -11 10 0 6 2 10 4 10 3 0 8 -4 11 -10z m-392 -256 c-4 -12 -8 -13
-14 -3 -9 15 -2 32 11 24 5 -3 6 -13 3 -21z m202 -392 c-3 -3 -11 0 -18 7 -9
10 -8 11 6 5 10 -3 15 -9 12 -12z m470 8 c3 -5 1 -10 -4 -10 -6 0 -11 5 -11
10 0 6 2 10 4 10 3 0 8 -4 11 -10z m20 -200 c3 -6 -1 -7 -9 -4 -18 7 -21 14
-7 14 6 0 13 -4 16 -10z m-471 -106 c3 -8 2 -12 -4 -9 -6 3 -10 10 -10 16 0
14 7 11 14 -7z m-24 -155 c-6 -10 -13 -19 -16 -19 -2 0 0 8 5 19 6 10 7 22 3
26 -4 5 -1 5 6 1 9 -5 9 -12 2 -27z m460 -79 c0 -5 -2 -10 -4 -10 -3 0 -8 5
-11 10 -3 6 -1 10 4 10 6 0 11 -4 11 -10z m-1470 -560 c0 -5 -5 -10 -11 -10
-5 0 -7 5 -4 10 3 6 8 10 11 10 2 0 4 -4 4 -10z m1020 -186 c0 -8 -19 -13 -24
-6 -3 5 1 9 9 9 8 0 15 -2 15 -3z m-265 -163 c3 -5 2 -12 -3 -15 -5 -3 -9 1
-9 9 0 17 3 19 12 6z m-174 -84 c-10 -9 -11 -8 -5 6 3 10 9 15 12 12 3 -3 0
-11 -7 -18z m-424 -52 c0 -8 -4 -15 -9 -15 -10 0 -11 14 -1 23 9 10 10 9 10
-8z"/>
<path d="M3285 2997 c6 -14 2 -15 -22 -8 -15 4 -37 6 -48 4 -26 -6 -86 -4 -97
3 -4 3 -8 0 -8 -7 0 -8 -5 -7 -17 2 -11 10 -14 10 -9 2 4 -7 3 -13 -1 -13 -5
0 -15 6 -22 13 -10 10 -11 8 -5 -7 6 -15 4 -17 -6 -11 -9 6 -11 4 -5 -4 10
-17 12 -91 2 -91 -4 0 -3 -9 3 -19 12 -24 13 -34 2 -27 -7 4 -8 -27 -2 -44 1
-3 1 -16 0 -29 -1 -16 2 -21 12 -16 7 3 5 0 -4 -8 -10 -8 -15 -17 -11 -20 3
-4 -1 -7 -11 -7 -11 0 -15 4 -10 13 5 8 2 8 -9 -2 -20 -16 -23 -25 -4 -15 6 4
9 3 4 -1 -4 -5 -17 -10 -29 -12 -21 -3 -21 -3 -2 19 16 20 16 21 1 9 -10 -8
-38 -14 -62 -14 -24 0 -42 -3 -40 -7 2 -3 -9 -6 -26 -6 -20 0 -28 4 -25 12 3
8 0 16 -6 20 -7 5 -8 2 -3 -6 6 -10 4 -12 -8 -7 -8 3 -21 -1 -27 -8 -7 -8 -17
-13 -23 -12 -16 3 -15 -94 1 -101 9 -3 10 -7 3 -11 -18 -11 -21 -61 -5 -68 10
-3 12 -8 5 -12 -15 -10 -21 -60 -8 -68 6 -4 27 -7 47 -8 19 0 35 -6 35 -12 0
-6 3 -15 7 -19 4 -3 6 3 3 15 -2 11 0 21 6 21 5 0 9 -5 9 -11 0 -6 5 -7 13 -2
18 12 67 12 67 1 0 -7 4 -7 13 0 11 10 75 8 85 -3 9 -8 10 -65 2 -60 -5 3 -12
0 -16 -6 -4 -7 -3 -9 3 -6 6 4 14 0 17 -9 4 -10 2 -13 -6 -8 -7 5 -8 3 -3 -6
5 -8 8 -32 8 -54 -1 -23 4 -47 9 -54 8 -9 6 -11 -8 -6 -16 6 -17 5 -6 -7 14
-15 16 -33 3 -25 -5 4 -4 -5 2 -18 8 -17 15 -22 23 -15 8 7 15 6 19 -1 4 -6
16 -8 27 -4 15 4 18 3 13 -6 -6 -9 -3 -9 12 -1 14 7 24 7 33 -2 10 -10 12 -9
7 5 -4 12 -2 15 8 11 8 -3 13 -8 11 -12 -3 -4 4 -7 14 -7 11 0 16 6 13 16 -3
10 1 9 11 -4 10 -13 16 -15 16 -7 0 11 3 11 17 0 11 -10 14 -10 9 -1 -4 6 -3
12 1 12 5 0 15 -6 22 -12 11 -10 13 -10 7 0 -7 12 2 15 34 13 10 0 11 1 3 5
-7 3 -13 12 -13 20 0 9 5 13 13 9 6 -4 4 0 -5 8 -19 15 -25 33 -9 22 5 -3 13
-1 16 5 4 6 1 9 -6 8 -8 -2 -13 8 -13 27 0 21 4 29 14 27 11 -2 10 2 -2 11
-19 15 -25 33 -9 22 5 -3 13 0 17 6 4 8 3 9 -4 5 -7 -4 -12 -1 -12 9 0 10 5
14 13 10 6 -4 5 -1 -4 7 -21 18 -21 68 1 60 12 -5 13 -3 3 9 -10 12 1 14 73
14 46 1 84 -3 84 -7 0 -4 5 -8 11 -8 5 0 8 4 5 8 -3 5 5 8 17 7 12 -1 22 -7
22 -12 0 -6 3 -15 7 -19 4 -3 6 2 3 14 -3 15 3 21 23 25 25 5 25 4 7 -9 -10
-8 -14 -14 -8 -14 6 0 16 7 23 15 7 8 9 15 5 15 -4 0 -3 6 3 13 5 6 8 22 6 35
-3 16 0 21 8 16 7 -4 8 -3 4 4 -4 6 -12 9 -19 6 -22 -8 -17 35 6 52 l22 16
-25 -7 c-20 -6 -23 -5 -12 6 13 14 17 33 4 25 -4 -2 -8 4 -8 14 0 18 2 18 18
3 16 -14 17 -14 5 10 -6 14 -16 23 -22 19 -5 -3 -1 5 9 17 19 21 19 21 1 15
-14 -6 -16 -4 -10 6 6 10 2 11 -18 6 -14 -3 -29 -1 -32 4 -5 8 -12 7 -22 -2
-14 -11 -15 -10 -9 12 5 17 4 21 -2 11 -6 -8 -33 -14 -74 -16 -58 -2 -68 1
-96 26 -20 18 -29 34 -26 44 3 8 11 12 18 8 6 -3 6 -1 -1 8 -7 7 -13 17 -13
22 0 4 6 5 13 2 6 -4 4 0 -5 8 -19 15 -25 33 -9 22 5 -3 13 -1 16 5 4 6 1 9
-6 8 -8 -2 -13 8 -13 27 0 21 4 29 14 27 11 -2 11 1 -2 11 -15 12 -15 14 0 25
16 10 15 11 -1 5 -15 -4 -17 -1 -13 21 2 14 0 28 -5 32 -5 3 -9 2 -8 -3 4 -22
-3 -24 -21 -8 -18 16 -20 16 -15 2z m77 -274 c8 -10 18 -25 22 -33 4 -8 1 -7
-8 4 -9 11 -21 16 -32 12 -14 -5 -15 -4 -5 8 9 11 9 15 -1 19 -7 3 -8 6 -2 6
6 1 18 -7 26 -16z m-552 -23 c0 -5 -5 -10 -11 -10 -5 0 -7 5 -4 10 3 6 8 10
11 10 2 0 4 -4 4 -10z m820 -234 c0 -3 -4 -8 -10 -11 -5 -3 -10 -1 -10 4 0 6
5 11 10 11 6 0 10 -2 10 -4z"/>
<path d="M4117 2992 c5 -12 2 -12 -15 -3 -15 8 -27 7 -49 -4 -15 -8 -22 -15
-14 -15 10 0 11 -3 2 -14 -9 -11 -9 -15 1 -19 10 -4 10 -6 -1 -6 -11 -1 -11
-4 0 -18 10 -11 10 -14 2 -9 -7 4 -13 2 -13 -3 0 -6 5 -11 11 -11 8 0 8 -4 0
-14 -9 -10 -9 -16 -1 -21 8 -5 8 -11 -1 -21 -9 -11 -8 -14 2 -14 11 0 11 -2
-1 -10 -12 -8 -12 -10 -1 -10 11 0 11 -3 0 -17 -9 -11 -10 -14 -2 -9 9 5 11 2
7 -8 -3 -9 -11 -13 -18 -9 -8 5 -8 3 1 -8 9 -11 9 -18 0 -29 -9 -12 -32 -15
-99 -14 -48 0 -85 -2 -83 -6 6 -9 -27 -9 -40 0 -5 4 -19 10 -30 13 -20 7 -20
7 -1 -8 19 -14 19 -15 -6 -15 -24 0 -25 -2 -18 -40 6 -33 5 -40 -9 -41 -12 0
-11 -2 4 -9 11 -5 15 -9 8 -9 -14 -1 -9 -37 8 -57 9 -11 8 -15 -2 -19 -14 -5
-18 -53 -6 -72 4 -6 2 -13 -5 -15 -7 -3 -5 -7 6 -11 10 -4 15 -3 11 3 -6 10 5
9 73 -4 12 -3 20 -1 18 3 -3 4 8 8 24 8 17 0 30 -4 30 -9 0 -5 6 -6 13 -1 18
12 61 11 70 -1 6 -8 10 -7 14 2 8 20 26 14 20 -8 -3 -11 0 -23 5 -27 7 -4 8
-1 3 8 -5 8 -4 10 0 6 12 -10 15 -38 4 -31 -5 3 -9 0 -9 -5 0 -6 5 -11 11 -11
8 0 7 -5 -2 -16 -10 -13 -10 -17 0 -24 11 -6 11 -9 0 -13 -10 -4 -10 -6 -1 -6
6 -1 12 -6 12 -12 0 -5 -4 -8 -9 -4 -11 6 -7 -28 5 -47 4 -7 3 -8 -4 -4 -16 9
-15 -7 0 -22 9 -9 9 -12 -1 -12 -10 0 -11 -3 -2 -13 8 -10 7 -17 -2 -26 -9
-10 -9 -12 3 -9 10 2 14 -4 13 -17 -1 -11 0 -14 3 -7 3 6 12 12 20 12 8 0 14
5 14 11 0 6 7 3 16 -5 17 -18 28 -21 19 -6 -3 6 1 10 10 10 9 0 14 -4 11 -8
-3 -5 2 -9 10 -9 9 0 13 6 9 15 -5 12 -3 13 10 2 9 -7 18 -10 22 -7 3 4 15 2
26 -4 13 -8 17 -8 13 -1 -4 7 6 9 30 5 30 -5 36 -3 29 8 -7 12 -6 12 9 0 15
-13 19 -13 27 0 13 20 11 26 -8 34 -17 6 -17 7 1 21 20 14 20 14 0 15 -15 1
-14 3 6 9 15 5 18 8 8 9 -11 1 -15 7 -11 21 3 11 10 17 16 13 6 -3 7 -1 3 6
-4 6 -12 9 -17 6 -5 -4 -9 -2 -9 4 0 5 4 11 10 13 6 2 4 14 -5 31 -7 15 -10
27 -4 27 5 0 9 9 9 21 0 11 4 17 10 14 6 -3 7 1 3 10 -4 12 -8 13 -13 5 -5 -9
-9 -9 -14 -1 -7 11 4 15 39 12 15 -1 17 0 7 7 -11 8 -11 10 2 15 9 4 15 1 13
-5 -1 -6 8 -11 20 -13 12 -1 20 1 18 5 -2 4 9 7 25 7 17 0 30 -4 30 -9 0 -4 5
-8 11 -8 5 0 8 4 5 8 -2 4 4 8 15 8 10 0 19 -3 19 -6 0 -3 9 -6 19 -6 11 0 17
4 15 8 -10 16 9 8 22 -9 13 -17 14 -17 7 1 -4 12 -3 17 4 13 6 -4 14 0 17 9 3
8 10 13 14 10 5 -3 9 1 9 9 0 18 -14 20 -19 3 -3 -9 -6 -9 -12 0 -4 7 -2 12 4
12 6 0 8 5 4 12 -5 8 -2 9 9 5 16 -6 15 -4 0 20 -17 26 -17 27 1 20 19 -7 19
-7 3 11 -21 23 -22 36 -2 28 12 -4 12 0 -2 21 -17 26 -17 27 2 19 19 -7 19 -6
3 10 -16 16 -16 18 0 31 9 8 12 12 7 9 -6 -2 -17 5 -25 17 -12 20 -12 21 3 9
12 -10 17 -10 23 -1 5 8 3 9 -6 4 -10 -6 -12 -4 -7 9 4 9 3 15 -2 11 -14 -8
-42 6 -34 18 3 6 1 7 -6 3 -8 -5 -9 -12 -2 -20 7 -9 4 -12 -14 -11 -13 0 -27
3 -31 7 -4 4 -14 2 -22 -5 -13 -10 -14 -8 -8 13 5 17 4 21 -2 11 -6 -8 -35
-14 -80 -16 -61 -3 -70 -1 -65 13 5 11 2 14 -9 10 -11 -5 -14 -1 -10 18 2 13
9 21 15 17 6 -3 7 -1 3 6 -5 8 -12 9 -20 2 -8 -7 -12 -5 -12 8 0 11 6 17 12
14 9 -3 11 3 7 18 -5 17 -3 20 8 14 12 -7 12 -6 0 9 -13 15 -13 19 0 27 10 6
11 9 1 9 -7 0 -11 4 -8 9 3 5 -2 12 -12 16 -16 6 -16 7 2 21 20 14 20 14 0 15
-15 1 -14 3 6 9 15 5 18 8 9 9 -9 1 -20 8 -23 17 -5 14 -4 15 9 4 13 -11 14
-10 9 4 -4 11 -17 16 -38 15 -17 -1 -40 2 -51 6 -16 5 -17 5 -5 -4 13 -9 12
-11 -5 -8 -11 1 -26 6 -32 10 -8 5 -13 3 -13 -5 0 -10 -2 -10 -9 1 -6 9 -10
10 -12 2 -3 -7 -12 -9 -22 -6 -9 4 -15 10 -12 14 2 4 -2 8 -9 8 -8 0 -12 -7
-9 -15z m208 -121 c3 -5 2 -12 -3 -15 -5 -3 -9 1 -9 9 0 17 3 19 12 6z"/>
<path d="M327 2933 c-10 -9 -9 -23 1 -23 5 0 9 7 9 15 0 17 -1 18 -10 8z"/>
<path d="M4328 2903 c7 -3 16 -2 19 1 4 3 -2 6 -13 5 -11 0 -14 -3 -6 -6z"/>
<path d="M3345 2891 c-3 -5 -2 -12 3 -15 5 -3 9 1 9 9 0 17 -3 19 -12 6z"/>
<path d="M3566 2715 c4 -8 11 -15 16 -15 6 0 5 6 -2 15 -7 8 -14 15 -16 15 -2
0 -1 -7 2 -15z"/>
<path d="M4526 2715 c4 -8 11 -15 16 -15 6 0 5 6 -2 15 -7 8 -14 15 -16 15 -2
0 -1 -7 2 -15z"/>
<path d="M2850 2710 c0 -5 5 -10 11 -10 5 0 7 5 4 10 -3 6 -8 10 -11 10 -2 0
-4 -4 -4 -10z"/>
<path d="M3810 2710 c0 -5 5 -10 11 -10 5 0 7 5 4 10 -3 6 -8 10 -11 10 -2 0
-4 -4 -4 -10z"/>
<path d="M3620 2540 c0 -5 5 -10 11 -10 5 0 7 5 4 10 -3 6 -8 10 -11 10 -2 0
-4 -4 -4 -10z"/>
<path d="M3738 2523 c7 -3 16 -2 19 1 4 3 -2 6 -13 5 -11 0 -14 -3 -6 -6z"/>
<path d="M2797 2409 c7 -7 15 -10 18 -7 3 3 -2 9 -12 12 -14 6 -15 5 -6 -5z"/>
<path d="M2163 2385 c0 -8 4 -12 9 -9 5 3 6 10 3 15 -9 13 -12 11 -12 -6z"/>
<path d="M3343 2375 c0 -8 4 -12 9 -9 5 3 6 10 3 15 -9 13 -12 11 -12 -6z"/>
<path d="M885 2340 c-3 -5 -1 -10 4 -10 6 0 11 5 11 10 0 6 -2 10 -4 10 -3 0
-8 -4 -11 -10z"/>
<path d="M4330 2345 c0 -5 5 -17 10 -25 5 -8 10 -10 10 -5 0 6 -5 17 -10 25
-5 8 -10 11 -10 5z"/>
<path d="M3345 2251 c-3 -5 -2 -12 3 -15 5 -3 9 1 9 9 0 17 -3 19 -12 6z"/>
<path d="M4328 2183 c7 -3 16 -2 19 1 4 3 -2 6 -13 5 -11 0 -14 -3 -6 -6z"/>
<path d="M875 1949 c-4 -6 -4 -13 -1 -16 3 -4 6 -1 6 6 0 7 5 9 12 5 7 -4 8
-3 4 4 -9 15 -13 15 -21 1z"/>
<path d="M2545 1871 c-6 -11 13 -26 22 -17 4 3 1 6 -6 6 -7 0 -9 5 -6 10 3 6
4 10 1 10 -3 0 -7 -4 -11 -9z"/>
<path d="M1955 1828 l-20 -21 23 12 c12 6 22 16 22 21 0 13 -2 12 -25 -12z"/>
<path d="M2470 1726 c0 -2 7 -7 16 -10 8 -3 12 -2 9 4 -6 10 -25 14 -25 6z"/>
<path d="M820 1681 c0 -6 4 -13 10 -16 6 -3 7 1 4 9 -7 18 -14 21 -14 7z"/>
<path d="M1950 1179 c0 -5 5 -7 10 -4 6 3 10 8 10 11 0 2 -4 4 -10 4 -5 0 -10
-5 -10 -11z"/>
<path d="M1176 1022 c-3 -5 1 -9 9 -9 8 0 12 4 9 9 -3 4 -7 8 -9 8 -2 0 -6 -4
-9 -8z"/>
</g>
</svg>
